# xmcd CD database file
#
# Track frame offsets:
#	150
#	21169
#	36285
#	47672
#	61537
#	80550
#	97902
#	111284
#	122100
#	137197
#	154580
#	169962
#	184245
#	197948
#	209845
#	222004
#
# Disc length: 3232 seconds
#
# Revision: 0
# Processed by: cddbd v1.5.2PL0 Copyright (c) Steve Scherf et al.
# Submitted via: CDex 1.72
#
DISCID=e70c9e10
DTITLE=Charlie Angel - North South
DYEAR=2004
DGENRE=Country
TTITLE0=Born Without Brakes
TTITLE1=She's A Lady
TTITLE2=California Calling
TTITLE3=The Girl I Never Knew
TTITLE4=On The Run
TTITLE5=Because I Could
TTITLE6=The Girl From Oklahoma
TTITLE7=I'm In Love With A Window Dresser
TTITLE8=North South
TTITLE9=Tennessee
TTITLE10=Marianne
TTITLE11=State Of Grace
TTITLE12=Blanket On The Ground
TTITLE13=Sunday Night
TTITLE14=Vancouver
TTITLE15=When I Get To Heaven
EXTD=YEAR: 2004
EXTT0=
EXTT1=
EXTT2=
EXTT3=
EXTT4=
EXTT5=
EXTT6=
EXTT7=
EXTT8=
EXTT9=
EXTT10=
EXTT11=
EXTT12=
EXTT13=
EXTT14=
EXTT15=
PLAYORDER=
